<mxfile host="Electron" agent="Mozilla/5.0 (X11; Linux x86_64) AppleWebKit/537.36 (KHTML, like Gecko) draw.io/24.7.5 Chrome/126.0.6478.183 Electron/31.3.0 Safari/537.36" version="24.7.5">
  <diagram name="Page-1" id="2sJVNby1LgSEMNk1-PV5">
    <mxGraphModel dx="1434" dy="879" grid="1" gridSize="10" guides="1" tooltips="1" connect="1" arrows="1" fold="1" page="0" pageScale="1" pageWidth="850" pageHeight="1100" math="0" shadow="0">
      <root>
        <mxCell id="0" />
        <mxCell id="1" parent="0" />
        <mxCell id="nzXC6F38BJRtRWUt-cYX-1" value="POBLACIÓN" style="ellipse;whiteSpace=wrap;html=1;aspect=fixed;fillColor=#6a00ff;fontColor=#ffffff;strokeColor=#3700CC;" parent="1" vertex="1">
          <mxGeometry x="140" y="260" width="240" height="240" as="geometry" />
        </mxCell>
        <mxCell id="nzXC6F38BJRtRWUt-cYX-2" value="MUESTRA" style="ellipse;whiteSpace=wrap;html=1;aspect=fixed;fillColor=#a20025;fontColor=#ffffff;strokeColor=#6F0000;" parent="1" vertex="1">
          <mxGeometry x="250" y="410" width="70" height="70" as="geometry" />
        </mxCell>
        <mxCell id="nzXC6F38BJRtRWUt-cYX-3" value="Alturas de estudiantes de la universidad" style="ellipse;whiteSpace=wrap;html=1;aspect=fixed;fillColor=#6a00ff;fontColor=#ffffff;strokeColor=#3700CC;" parent="1" vertex="1">
          <mxGeometry x="580" y="240" width="260" height="260" as="geometry" />
        </mxCell>
        <mxCell id="nzXC6F38BJRtRWUt-cYX-4" value="Muestra de estudiantes de Ingeniería Informática" style="ellipse;whiteSpace=wrap;html=1;aspect=fixed;fillColor=#a20025;fontColor=#ffffff;strokeColor=#6F0000;" parent="1" vertex="1">
          <mxGeometry x="660" y="395" width="100" height="100" as="geometry" />
        </mxCell>
        <mxCell id="nzXC6F38BJRtRWUt-cYX-5" value="Variable aleatoria: Alturas&lt;div&gt;&lt;br&gt;&lt;/div&gt;&lt;div&gt;Población: Estudiantes de la universidad&lt;/div&gt;&lt;div&gt;&lt;br&gt;&lt;/div&gt;&lt;div&gt;Muestra: Estudiantes de informática&lt;/div&gt;" style="text;html=1;align=left;verticalAlign=middle;whiteSpace=wrap;rounded=0;" parent="1" vertex="1">
          <mxGeometry x="860" y="260" width="290" height="180" as="geometry" />
        </mxCell>
        <mxCell id="cdzvNs5AJnSTQuEF8yzZ-1" value="Muestra con Variable Aleatoria Continua" style="text;html=1;align=center;verticalAlign=middle;whiteSpace=wrap;rounded=0;fontSize=24;" vertex="1" parent="1">
          <mxGeometry x="580" y="550" width="260" height="70" as="geometry" />
        </mxCell>
      </root>
    </mxGraphModel>
  </diagram>
</mxfile>
